<svg xmlns="http://www.w3.org/2000/svg" width="29.609" height="31.969" viewBox="0 0 29.609 31.969"><defs><style>.a{fill:#fff;fill-rule:evenodd;}</style></defs><g transform="translate(0 5.752) rotate(-14)"><path class="a" d="M23.251,10.907h-18L22.54,5.9a.528.528,0,0,0,.36-.654l-.9-3.124A2.954,2.954,0,0,0,19.169,0a2.924,2.924,0,0,0-.813.116L2.12,4.819a2.944,2.944,0,0,0-2,3.638L1,11.509V24.082a2.94,2.94,0,0,0,2.937,2.937h6.341a.528.528,0,1,0,0-1.055H3.937a1.883,1.883,0,0,1-1.881-1.881V16.9H22.723v7.181a1.883,1.883,0,0,1-1.881,1.881H14.5a.528.528,0,1,0,0,1.055h6.341a2.94,2.94,0,0,0,2.937-2.937V11.435a.528.528,0,0,0-.528-.528Zm-9.305,4.939,2.242-3.883H19.1l-2.242,3.883Zm-4.135,0,2.242-3.883h2.916l-2.242,3.883Zm-4.135,0,2.242-3.883h2.916L8.591,15.845ZM7.637,9.014,3.883,5.408,6.7,4.593a.523.523,0,0,0,.069.081L10.52,8.28,7.706,9.1a.525.525,0,0,0-.069-.081Zm7.071-6.641,3.755,3.606-2.813.815a.514.514,0,0,0-.069-.081L11.826,3.106l2.813-.815A.523.523,0,0,0,14.709,2.373ZM10.737,3.524,14.491,7.13l-2.813.815a.514.514,0,0,0-.069-.081L7.854,4.257l2.813-.815A.557.557,0,0,0,10.737,3.524ZM18.65,1.13a1.866,1.866,0,0,1,.519-.074,1.893,1.893,0,0,1,1.812,1.358l.758,2.617-2.117.613a.537.537,0,0,0-.069-.081L15.8,1.956ZM1.292,6.734a1.868,1.868,0,0,1,1.122-.9l.31-.09a.537.537,0,0,0,.069.081L6.548,9.431l-4.659,1.35L1.13,8.164a1.868,1.868,0,0,1,.162-1.43Zm.764,5.228H6.7L4.456,15.845h-2.4ZM18.08,15.845l2.242-3.883h2.4v3.883Zm0,0" transform="translate(0 0)"/><path class="a" d="M201.758,347.6a.528.528,0,0,0-.264-.457l-4.636-2.677a.528.528,0,0,0-.792.457v5.353a.527.527,0,0,0,.792.457l4.636-2.676A.528.528,0,0,0,201.758,347.6Zm-4.636,1.763v-3.525l3.053,1.763Zm0,0" transform="translate(-185.72 -326.217)"/><path class="a" d="M225.3,492a.528.528,0,1,0,.528.528A.529.529,0,0,0,225.3,492Zm0,0" transform="translate(-212.911 -466.036)"/></g></svg>