<svg xmlns="http://www.w3.org/2000/svg" width="101.197" height="101.197" viewBox="0 0 101.197 101.197"><defs><style>.a{fill:#fff;}</style></defs><path class="a" d="M61.742,39.592l-37.105-25.3A1.686,1.686,0,0,0,22,15.686v50.6a1.686,1.686,0,0,0,2.636,1.393l37.105-25.3a1.685,1.685,0,0,0,0-2.786Zm-36.368,23.5V18.879L57.8,40.985Z" transform="translate(15.105 9.613)"/><path class="a" d="M50.6,0a50.6,50.6,0,1,0,50.6,50.6A50.656,50.656,0,0,0,50.6,0Zm0,97.824A47.225,47.225,0,1,1,97.824,50.6,47.279,47.279,0,0,1,50.6,97.824Z"/></svg>