<svg xmlns="http://www.w3.org/2000/svg" width="16.446" height="16.446" viewBox="0 0 16.446 16.446"><defs><style>.a{fill:#55acee;}.b{fill:#f1f2f2;}</style></defs><g transform="translate(-0.001)"><circle class="a" cx="8.223" cy="8.223" r="8.223" transform="translate(0.001 0)"/><g transform="translate(3.681 4.988)"><path class="b" d="M34.683,34.95a3.922,3.922,0,0,1-1.129.309,1.971,1.971,0,0,0,.864-1.087,3.935,3.935,0,0,1-1.248.477,1.967,1.967,0,0,0-3.349,1.793,5.58,5.58,0,0,1-4.051-2.054,1.968,1.968,0,0,0,.608,2.624,1.952,1.952,0,0,1-.89-.246c0,.008,0,.017,0,.025a1.967,1.967,0,0,0,1.577,1.927,1.973,1.973,0,0,1-.888.034,1.968,1.968,0,0,0,1.836,1.365,3.968,3.968,0,0,1-2.91.814,5.59,5.59,0,0,0,8.605-4.709c0-.085,0-.17-.006-.254a3.986,3.986,0,0,0,.981-1.017Z" transform="translate(-25.103 -34.028)"/></g></g></svg>